:SAMPLES-PER-SECOND 30
:FULLY-SPECIFIED
:DEGREES
363
root  15.1137 37.0399 11.0389 -177.655 0.718277 172.164
RightUpLeg  -12.8464 -10.0484 -30.6175
RightLeg  16.4776 -7.75102 -3.42978
RightFoot  4.59107 -4.24158 29.8516
RightToes  -1.74624e-010 0 -3.6325e-017
Spine  11.7053 -1.4516 7.61212
Spine1  20.7396 -1.42382 1.8167
HEad  -15.8549 11.8415 -18.0538
LeftShoulder1  0.987771 -0.928873 -15.4666
LeftArm  20.5848 12.973 -64.7705
LeftForeArm  69.7822 -79.304 -77.0105
LeftHand  -1.95553 -3.996 24.1475
RightShoulder  0.318857 -1.78468 11.5783
RightArm  -9.3676 -7.94162 54.8492
RightForeArm  145.311 62.8872 158.274
RightHand  -1.48686 4.85577 -17.0164
LeftUpLeg  -19.3091 -0.110881 1.24964
LeftLeg  40.4134 5.22783 5.14105
LeftFoot  -12.8252 -0.136881 -16.4194
LeftToes  3.7286e-011 -1.5702e-010 -9.70233e-012
364
root  14.0851 37.0496 10.9996 -177.89 2.24074 172.073
RightUpLeg  -11.955 -11.7494 -30.9705
RightLeg  12.2528 -6.76055 -4.35058
RightFoot  9.09319 -5.41438 29.8184
RightToes  -1.74624e-010 0 -3.6325e-017
Spine  11.2656 -1.045 5.99818
Spine1  21.9533 -0.92206 0.931065
HEad  -16.4556 12.0432 -16.8735
LeftShoulder1  1.02545 -1.01176 -15.9305
LeftArm  20.6099 10.0339 -64.7714
LeftForeArm  70.1901 -79.313 -78.4887
LeftHand  -2.05991 -3.77774 25.9618
RightShoulder  0.356655 -1.6048 11.8225
RightArm  -9.24709 -9.32049 55.4428
RightForeArm  145.489 62.7407 158.419
RightHand  -1.5103 4.87643 -17.2434
LeftUpLeg  -18.7884 2.24539 -0.691801
LeftLeg  40.5188 5.2851 5.21268
LeftFoot  -14.4849 -0.306069 -14.3096
LeftToes  3.7286e-011 -1.5702e-010 -9.70233e-012
365
root  13.0371 37.0502 10.9747 -178.745 3.41881 172.61
RightUpLeg  -10.8137 -13.7635 -30.5994
RightLeg  9.2547 -8.36326 -5.58647
RightFoot  13.4515 -5.77666 26.3333
RightToes  -1.74624e-010 0 -3.6325e-017
Spine  11.0273 -0.934073 4.91227
Spine1  23.4306 -0.762131 0.353048
HEad  -16.7728 12.2912 -15.6628
LeftShoulder1  1.08463 -1.26163 -15.9927
LeftArm  20.0956 6.74985 -65.0226
LeftForeArm  68.3366 -79.2342 -77.5305
LeftHand  -2.15572 -3.45393 28.0621
RightShoulder  0.387852 -1.43811 11.8029
RightArm  -8.48809 -10.1579 56.0667
RightForeArm  144.797 62.9695 158.151
RightHand  -1.50686 4.84804 -17.2507
LeftUpLeg  -17.504 4.917 -1.91333
LeftLeg  40.2989 4.76105 4.70894
LeftFoot  -16.5856 -0.431198 -11.5873
LeftToes  3.7286e-011 -1.5702e-010 -9.70233e-012
366
root  12.0161 37.1134 10.9529 -179.492 4.16479 172.988
RightUpLeg  -10.4805 -13.7662 -30.4389
RightLeg  9.29882 -11.7039 -6.15415
RightFoot  14.6056 -4.63997 20.309
RightToes  -1.74624e-010 0 -3.6325e-017
Spine  10.707 -1.01608 3.3397
Spine1  24.4937 -1.24121 0.764748
HEad  -16.4972 12.9192 -15.0035
LeftShoulder1  1.09027 -1.37752 -15.5253
LeftArm  18.8554 4.49587 -65.4955
LeftForeArm  68.6774 -79.25 -77.5413
LeftHand  -2.19505 -3.2864 29.0716
RightShoulder  0.418673 -1.2319 11.3941
RightArm  -6.86392 -10.788 56.8756
RightForeArm  144.294 63.4315 157.687
RightHand  -1.47585 4.82177 -16.948
LeftUpLeg  -15.8963 6.45205 -3.3196
LeftLeg  39.013 5.12832 4.8226
LeftFoot  -18.2239 -0.421173 -8.76803
LeftToes  3.7286e-011 -1.5702e-010 -9.70233e-012
367
root  11.1515 37.3713 10.9126 -179.991 4.80479 173.077
RightUpLeg  -11.0957 -8.64753 -30.1334
RightLeg  12.7828 -14.2913 -6.20717
RightFoot  11.3691 -3.29683 16.7326
RightToes  -1.74624e-010 0 -3.6325e-017
Spine  10.4277 -1.06696 1.12734
Spine1  24.999 -2.04333 1.88816
HEad  -15.9411 13.7584 -15.0464
LeftShoulder1  1.01828 -1.18492 -14.8478
LeftArm  17.3734 3.78722 -65.7153
LeftForeArm  74.279 -79.4459 -82.072
LeftHand  -2.21636 -3.36873 29.0788
RightShoulder  0.447838 -1.03127 11.0209
RightArm  -4.60345 -11.4226 57.6054
RightForeArm  144.518 63.7988 157.371
RightHand  -1.43402 4.77508 -16.555
LeftUpLeg  -13.8844 6.87222 -4.80642
LeftLeg  36.1486 6.35603 5.33744
LeftFoot  -18.3807 -0.331094 -7.15082
LeftToes  3.7286e-011 -1.5702e-010 -9.70233e-012
368
root  10.4727 37.8763 10.8318 179.904 5.50702 173.292
RightUpLeg  -12.3307 -0.0823006 -28.5757
RightLeg  17.8483 -14.7813 -5.57628
RightFoot  6.72662 -2.55995 16.3061
RightToes  -1.74624e-010 0 -3.6325e-017
Spine  9.93999 -1.10601 -0.533003
Spine1  25.2191 -2.61903 2.6365
HEad  -15.3439 14.374 -15.4469
LeftShoulder1  0.922204 -0.85042 -14.2593
LeftArm  16.4 4.2807 -65.341
LeftForeArm  83.3326 -79.5798 -90.4338
LeftHand  -2.25358 -3.56637 28.9233
RightShoulder  0.467845 -0.915725 10.9762
RightArm  -2.18097 -12.3634 58.1195
RightForeArm  144.879 63.8965 157.316
RightHand  -1.41299 4.73546 -16.3807
LeftUpLeg  -11.8038 7.04865 -5.7519
LeftLeg  32.1067 7.17367 5.19606
LeftFoot  -16.4501 -0.210889 -6.96306
LeftToes  3.7286e-011 -1.5702e-010 -9.70233e-012
369
root  9.90994 38.5789 10.7225 -179.667 5.82869 173.965
RightUpLeg  -13.3697 3.34119 -24.2618
RightLeg  21.2427 -10.6073 -4.70018
RightFoot  3.89821 -2.14725 16.1504
RightToes  -1.74624e-010 0 -3.6325e-017
Spine  9.15099 -1.34405 -0.884053
Spine1  25.0738 -2.99833 2.80662
HEad  -14.4844 14.7225 -15.6893
LeftShoulder1  0.846116 -0.573943 -13.785
LeftArm  16.1881 5.65058 -64.5439
LeftForeArm  92.2659 -79.4459 -99.3738
LeftHand  -2.27422 -3.6735 28.8481
RightShoulder  0.482044 -0.845411 11.0366
RightArm  0.102327 -13.9298 58.5221
RightForeArm  145.124 63.8205 157.412
RightHand  -1.42241 4.82859 -16.3429
LeftUpLeg  -10.2133 7.87841 -5.87271
LeftLeg  27.6791 6.92443 4.28062
LeftFoot  -12.2099 0.0137272 -6.57449
LeftToes  3.7286e-011 -1.5702e-010 -9.70233e-012
370
root  9.39646 39.3613 10.6202 -178.796 5.19574 174.848
RightUpLeg  -13.3742 3.74336 -19.0431
RightLeg  21.9491 -7.16214 -3.39274
RightFoot  2.59305 -2.07669 17.0502
RightToes  -1.74624e-010 0 -3.6325e-017
Spine  8.31705 -1.83488 -0.618797
Spine1  24.309 -3.65049 3.33067
HEad  -13.1808 15.0471 -15.3142
LeftShoulder1  0.777041 -0.302314 -13.4151
LeftArm  16.6629 7.74667 -63.5921
LeftForeArm  100.781 -79.0206 -108.312
LeftHand  -2.25062 -3.65484 28.6191
RightShoulder  0.501125 -0.743614 11.0563
RightArm  2.18984 -15.9848 58.5924
RightForeArm  145.812 63.6854 157.607
RightHand  -1.42854 5.05393 -16.0725
LeftUpLeg  -9.35768 9.9824 -5.45436
LeftLeg  23.4971 5.02061 2.74909
LeftFoot  -6.29747 0.297655 -5.86438
LeftToes  3.7286e-011 -1.5702e-010 -9.70233e-012
371
root  8.9412 40.017 10.5335 -177.823 3.72446 175.409
RightUpLeg  -12.8058 2.30122 -14.1704
RightLeg  20.6118 -3.26746 -1.57709
RightFoot  1.30431 -2.31007 20.7312
RightToes  -1.74624e-010 0 -3.6325e-017
Spine  7.61697 -2.37562 -0.939194
Spine1  23.0455 -4.63315 4.56716
HEad  -11.6938 15.3271 -14.1922
LeftShoulder1  0.702294 0.0431651 -13.2812
LeftArm  17.8042 10.1296 -62.3349
LeftForeArm  109.737 -78.1958 -117.902
LeftHand  -2.19266 -3.60808 28.0544
RightShoulder  0.52294 -0.652577 11.2608
RightArm  3.99682 -17.8995 57.9135
RightForeArm  146.859 63.5007 157.881
RightHand  -1.39945 5.21836 -15.5203
LeftUpLeg  -9.30521 12.8455 -4.84465
LeftLeg  20.7085 0.126447 0.381444
LeftFoot  -0.668405 0.856941 -8.85855
LeftToes  3.7286e-011 -1.5702e-010 -9.70233e-012
372
root  8.50684 40.3271 10.4356 -177 2.12363 175.573
RightUpLeg  -12.759 0.486637 -9.99224
RightLeg  19.6212 -0.115621 -0.264746
RightFoot  0.436762 -2.44394 23.4318
RightToes  -1.74624e-010 0 -3.6325e-017
Spine  6.89955 -2.78347 -1.59155
Spine1  21.8077 -5.50085 5.93253
HEad  -10.3449 15.3309 -12.6639
LeftShoulder1  0.654857 0.292584 -13.3844
LeftArm  19.3516 12.2369 -60.5826
LeftForeArm  117.705 -77.0606 -126.362
LeftHand  -2.09344 -3.61837 26.808
RightShoulder  0.529923 -0.662696 11.6118
RightArm  5.2597 -19.2487 56.8013
RightForeArm  147.275 63.2889 158.114
RightHand  -1.34639 5.19509 -14.9815
LeftUpLeg  -10.2644 13.868 -4.0578
LeftLeg  20.8818 -6.5467 -2.45695
LeftFoot  2.46907 2.1616 -17.9274
LeftToes  3.7286e-011 -1.5702e-010 -9.70233e-012
373
root  8.04358 40.2511 10.3075 -176.582 0.812607 175.478
RightUpLeg  -13.2236 -1.571 -6.66906
RightLeg  20.4022 -1.49473 -0.967622
RightFoot  -0.401889 -1.9302 19.8363
RightToes  -1.74624e-010 0 -3.6325e-017
Spine  6.10795 -3.02114 -1.94817
Spine1  20.8699 -5.9554 6.86418
HEad  -9.09927 14.9771 -11.122
LeftShoulder1  0.65787 0.269415 -13.33
LeftArm  20.773 13.8684 -58.7577
LeftForeArm  123.309 -76.0071 -132.042
LeftHand  -1.93792 -3.65783 24.791
RightShoulder  0.505463 -0.796074 11.631
RightArm  5.83234 -20.1944 56.1806
RightForeArm  146.879 63.0131 158.318
RightHand  -1.29378 5.07031 -14.5783
LeftUpLeg  -11.7048 11.2078 -2.96734
LeftLeg  23.7179 -10.8015 -4.83797
LeftFoot  2.22881 3.2314 -26.9779
LeftToes  3.7286e-011 -1.5702e-010 -9.70233e-012
374
root  7.55456 39.8816 10.184 -176.941 -0.0682831 175.15
RightUpLeg  -13.1317 -3.31135 -4.90062
RightLeg  22.341 -7.45576 -3.79062
RightFoot  -3.42057 -0.880734 12.0528
RightToes  -1.74624e-010 0 -3.6325e-017
Spine  5.78461 -3.08258 -2.01586
Spine1  20.1523 -5.9135 7.12052
HEad  -7.98033 14.3409 -9.68238
LeftShoulder1  0.666686 0.14332 -12.7754
LeftArm  21.8855 14.8872 -57.4616
LeftForeArm  126.659 -75.1966 -135.511
LeftHand  -1.79342 -3.61796 23.1162
RightShoulder  0.449318 -1.04923 11.2379
RightArm  5.93929 -20.7474 56.2634
RightForeArm  146.629 62.5442 158.698
RightHand  -1.25418 4.98769 -14.2532
LeftUpLeg  -12.7731 6.82397 -1.50393
LeftLeg  28.1691 -9.85594 -5.30819
LeftFoot  -0.663582 2.70913 -28.1891
LeftToes  3.7286e-011 -1.5702e-010 -9.70233e-012
375
root  7.034 39.2914 10.1228 -178.196 -0.0223541 174.769
RightUpLeg  -12.6796 -2.96162 -5.01408
RightLeg  25.6031 -13.1504 -7.08629
RightFoot  -8.78629 -0.206864 7.59847
RightToes  -1.74624e-010 0 -3.6325e-017
Spine  6.2969 -2.9189 -1.62634
Spine1  19.8843 -5.16549 6.06604
HEad  -7.61358 13.6177 -8.6153
LeftShoulder1  0.638701 0.195366 -12.1877
LeftArm  22.634 14.7937 -56.709
LeftForeArm  127.928 -74.6996 -137.285
LeftHand  -1.76097 -3.46918 23.0738
RightShoulder  0.385099 -1.36925 10.971
RightArm  5.82945 -20.1391 56.3393
RightForeArm  146.795 62.1078 159.082
RightHand  -1.23933 4.95787 -14.1283
LeftUpLeg  -13.0824 3.72561 0.376993
LeftLeg  33.3801 -4.37286 -2.70731
LeftFoot  -4.25357 1.44213 -22.5146
LeftToes  3.7286e-011 -1.5702e-010 -9.70233e-012
376
root  6.42052 38.6306 10.1313 -179.89 1.33586 174.981
RightUpLeg  -12.7791 -1.08393 -5.82413
RightLeg  29.7868 -13.7736 -8.57321
RightFoot  -13.5417 0.0881881 9.00772
RightToes  -1.74624e-010 0 -3.6325e-017
Spine  7.02904 -2.59552 0.0567563
Spine1  20.657 -3.76501 3.62268
HEad  -8.58613 13.1884 -8.45025
LeftShoulder1  0.618695 0.343913 -12.4928
LeftArm  22.2355 13.4726 -56.4791
LeftForeArm  126.802 -75.0901 -135.86
LeftHand  -1.81976 -3.34057 24.1502
RightShoulder  0.357778 -1.52492 11.0216
RightArm  5.47233 -17.7834 56.1091
RightForeArm  146.574 62.4292 158.788
RightHand  -1.25941 4.9483 -14.3625
LeftUpLeg  -12.6229 2.44615 3.03905
LeftLeg  38.016 1.523 1.62032
LeftFoot  -6.68397 0.700683 -16.3693
LeftToes  3.7286e-011 -1.5702e-010 -9.70233e-012
